<svg width="120" height="34" viewBox="0 0 120 34" fill="none" xmlns="http://www.w3.org/2000/svg">
<path d="M12.3709 13.6434C6.73937 11.52 5.16993 9.39668 5.16993 6.85787C5.16993 4.78067 7.06249 1.59562 11.817 1.59562C16.2945 1.59562 19.5719 4.31907 21.5568 9.67364H22.3415L19.3872 1.22634H15.4175C14.2173 0.903221 12.9248 0.76474 11.54 0.76474C5.90849 0.76474 1.47712 3.94979 1.47712 8.70427C1.47712 13.3664 4.24673 16.136 10.4322 18.8133C15.9714 21.2598 19.895 22.3215 19.895 26.8452C19.895 31.3689 16.6638 33.1691 11.6323 33.1691C7.15481 33.1691 3.09273 30.0302 0.830882 23.614H0L3.50817 33.5384H7.7549C8.95506 33.8154 10.5707 34 11.9555 34C19.2488 34 24.2802 30.2149 24.2802 24.768C24.2802 20.4289 21.926 17.2901 12.3709 13.6434Z" fill="black"/>
<path d="M41.886 0.76474C32.2847 0.76474 26.1454 8.56579 26.1454 17.3824C26.1454 26.1989 32.2847 34 41.886 34C51.4873 34 57.6265 26.1989 57.6265 17.3824C57.6265 8.56579 51.4873 0.76474 41.886 0.76474ZM41.886 33.1691C33.3925 33.1691 31.4538 22.7369 31.4538 17.3824C31.4538 12.0278 33.3925 1.59562 41.886 1.59562C50.3333 1.59562 52.3181 12.0278 52.3181 17.3824C52.3181 22.7369 50.3333 33.1691 41.886 33.1691Z" fill="black"/>
<path d="M82.5472 32.7537L71.8842 0.76474H70.3148L59.9749 32.7537H56.6976V33.5384H64.7294V32.7537H60.852L64.1755 22.5061H73.823L77.2388 32.7537H73.3614V33.5384H85.8246V32.7537H82.5472ZM64.4063 21.7214L68.8838 7.87339L73.546 21.7214H64.4063Z" fill="black"/>
<path d="M116.4 32.7537L104.306 12.5356L113.076 2.05722H116.953V1.22634H108.183V2.05722H112.153L96.5968 20.6136V2.05722H100.474V1.22634H87.6879V2.05722H91.5654V32.7537H87.6879V33.5384H100.474V32.7537H96.5968V21.7676L100.936 16.5977L110.583 32.7537H106.429V33.5384H120V32.7537H116.4Z" fill="black"/>
</svg>
